<?xml version="1.0" standalone="no"?>
<!DOCTYPE svg PUBLIC "-//W3C//DTD SVG 20010904//EN"
 "http://www.w3.org/TR/2001/REC-SVG-20010904/DTD/svg10.dtd">
<svg version="1.0" xmlns="http://www.w3.org/2000/svg"
 width="512.000000pt" height="512.000000pt" viewBox="0 0 512.000000 512.000000"
 preserveAspectRatio="xMidYMid meet">
<metadata>
Created by potrace 1.14, written by Peter Selinger 2001-2017
</metadata>
<g transform="translate(0.000000,512.000000) scale(0.100000,-0.100000)"
fill="#000000" stroke="none">
<path d="M2368 5115 c-1 -1 -37 -5 -78 -9 -286 -25 -602 -118 -887 -262 -77
-40 -145 -68 -150 -64 -37 35 -196 98 -298 119 -81 16 -279 6 -363 -18 -200
-58 -370 -198 -456 -375 -127 -262 -123 -641 10 -959 l24 -57 -34 -100 c-43
-122 -89 -310 -112 -450 -26 -165 -28 -529 -4 -705 41 -308 106 -524 240 -800
346 -713 1013 -1229 1790 -1385 306 -61 684 -65 968 -10 174 33 434 113 561
171 119 55 265 131 308 160 23 16 45 29 48 29 6 0 174 118 185 130 3 3 37 31
76 62 239 190 477 484 631 778 155 295 240 578 282 940 17 145 4 509 -24 670
-95 543 -341 1017 -722 1396 -420 417 -974 678 -1553 732 -88 8 -434 14 -442
7z"/>
</g>
</svg>
